/* XPM */
static char *result[] = {
/* columns rows colors chars-per-pixel */
"64 64 138 2 ",
"   c #000000",
".  c #05060A",
"X  c #07080D",
"o  c #08090E",
"O  c #070911",
"+  c #0A0C13",
"@  c #0A0D1B",
"#  c #0F111A",
"$  c #11131D",
"%  c #0E1224",
"&  c #0F1428",
"*  c #141622",
"=  c #171A26",
"-  c #181A27",
";  c #11162D",
":  c #16192A",
">  c #1A1D2B",
",  c #141934",
"<  c #1B1F35",
"1  c #161C39",
"2  c #1D202F",
"3  c #1F2232",
"4  c #1D233B",
"5  c #212436",
"6  c #222639",
"7  c #26293E",
"8  c #181F40",
"9  c #192143",
"0  c #1C254A",
"q  c #1E2750",
"w  c #202640",
"e  c #252B47",
"r  c #292D44",
"t  c #252C4A",
"y  c #2B3047",
"u  c #2C3149",
"i  c #30354E",
"p  c #202953",
"a  c #232D5C",
"s  c #2C3253",
"d  c #2E365C",
"f  c #2F385F",
"g  c #313652",
"h  c #333854",
"j  c #373C5A",
"k  c #393F5D",
"l  c #263164",
"z  c #2A366D",
"x  c #343C63",
"c  c #353E6A",
"v  c #2A3770",
"b  c #2D3A77",
"n  c #2F3C7B",
"m  c #303E7F",
"M  c #3A405F",
"N  c #3C4263",
"B  c #37416E",
"V  c #3F4668",
"C  c #3B4573",
"Z  c #3F4A7D",
"A  c #41476A",
"S  c #434A6E",
"D  c #464E74",
"F  c #484F76",
"G  c #4B537C",
"H  c #313F81",
"J  c #324186",
"K  c #35448A",
"L  c #374791",
"P  c #384994",
"I  c #3A4B99",
"U  c #3D4FA2",
"Y  c #3E50A4",
"T  c #424E85",
"R  c #4F5781",
"E  c #4F5883",
"W  c #46528C",
"Q  c #48548F",
"!  c #515985",
"~  c #545D8B",
"^  c #425096",
"/  c #4D5A99",
"(  c #505C96",
")  c #57608F",
"_  c #576090",
"`  c #5A6394",
"'  c #5D6799",
"]  c #5F699C",
"[  c #606A9E",
"{  c #4052A7",
"}  c #4153AA",
"|  c #505FA1",
" . c #4457B2",
".. c #4458B4",
"X. c #475BBA",
"o. c #485DBD",
"O. c #5261A3",
"+. c #5C67A1",
"@. c #5F6AA6",
"#. c #5665AB",
"$. c #5867AF",
"%. c #5D6BAD",
"&. c #5969B3",
"*. c #5C6DB9",
"=. c #5F70BF",
"-. c #636DA2",
";. c #6670A7",
":. c #6772A9",
">. c #6974AC",
",. c #6472B4",
"<. c #6B77B1",
"1. c #6E79B4",
"2. c #717DBA",
"3. c #4B60C5",
"4. c #4D64CC",
"5. c #4F66D0",
"6. c #6273C4",
"7. c #6778C5",
"8. c #6C7BC0",
"9. c #6577CA",
"0. c #6779CE",
"q. c #6A7DD5",
"w. c #6C7FD8",
"e. c #7682C2",
"r. c #7885C6",
"t. c #7A86C8",
"y. c #7C89CC",
"u. c #6F81D6",
"i. c #6D80D9",
"p. c #7F8CD1",
"a. c #7385DA",
"s. c #7788DB",
"d. c #7B8CDB",
"f. c #818ED4",
"g. c #808FDD",
"h. c #8390D7",
"j. c #8795DE",
"k. c None",
/* pixels */
"k.k.k.k.k.k.k.k.k.k.k.k.k.k.k.k.k.k.k.k.k.k.k.k.k.k.k.k.k.k.k.k.k.k.k.k.k.k.k.k.k.k.k.k.k.k.k.          k.k.k.k.k.k.k.k.k.k.k.k.",
"k.k.k.k.k.k.k.k.k.k.k.k.k.k.k.k.k.k.k.k.k.k.k.k.k.k.k.k.k.k.k.k.k.k.k.k.k.k.k.k.k.k.k.k.k.k.      +         k.k.k.k.k.k.k.k.k.k.",
"k.k.k.k.k.k.k.k.k.k.k.k.k.k.k.k.k.k.k.k.k.k.k.k.k.k.k.k.k.k.k.k.k.k.k.k.k.k.k.k.k.k.k.k.k.    F h.j.p.~ =     k.k.k.k.k.k.k.k.k.",
"k.k.k.k.k.k.k.k.k.k.k.k.k.k.k.k.k.k.k.k.k.k.k.k.k.k.k.k.k.k.k.k.k.k.k.k.k.k.k.k.k.k.k.k.k.~ :.j.j.j.j.j.y.    k.k.k.k.k.k.k.k.k.",
"k.k.k.k.k.k.k.k.k.k.k.k.k.k.k.k.k.k.k.k.k.k.k.k.k.k.k.k.k.k.k.k.k.k.k.k.k.k.k.k.k.k.k.k.k.j.j.j.j.j.j.j.j.X   k.k.k.k.k.k.k.k.k.",
"k.k.k.k.k.k.k.k.k.k.k.k.k.k.k.k.k.k.k.k.k.k.k.k.k.k.k.k.k.k.k.k.k.k.k.k.k.k.k.k.k.k.k.k.[ j.j.j.2.u r h.j.+   k.k.k.k.k.k.k.k.k.",
"k.k.k.k.k.k.k.k.k.k.k.k.k.k.k.k.k.k.k.k.k.k.k.k.k.k.k.k.k.k.k.k.k.k.k.k.k.k.k.k.k.k.k.  $ j.j.y.o   # f.j.3   k.k.k.k.k.k.k.k.k.",
"k.k.k.k.k.k.k.k.k.k.k.k.k.k.k.k.k.k.k.                      k.k.k.k.k.k.k.k.k.k.k.k.k.  . h.j._   i h.j.j.F     k.k.k.k.k.k.k.k.",
"k.k.k.k.k.k.k.k.k.k.k.k.k.k.k.k.k.      . * 2 > > > = +           k.k.k.k.k.k.k.k.k.k.    ' j.[   - ;.j.j.t..   k.k.k.k.k.k.k.k.",
"k.k.k.k.k.k.k.k.k.k.k.k.k.k.k.      i -.h.j.j.j.j.j.j.j.t._ u .     k.k.k.k.k.k.k.k.k.k.  - j.h.6     t.j.j.u   k.k.k.k.k.k.k.k.",
"k.k.k.k.k.k.k.k.k.k.k.k.k.k.    $ 1.j.j.j.j.j.j.j.j.j.j.j.j.j.y.N .     k.k.k.k.k.k.k.k.    ' j.j._ _ j.j.j.j   k.k.k.k.k.k.k.k.",
"k.k.k.k.k.k.k.k.k.k.k.k.k.    5 f.j.j.j.j.j.j.j.j.j.j.j.j.j.j.j.j.2.-     k.k.k.k.k.k.k.k.  - j.j.j.j.j.j.t.+   k.k.k.k.k.k.k.k.",
"k.k.k.k.k.k.k.k.k.k.k.k.k.  $ y.j.j.j.j.j.j.j.j.j.j.j.j.j.j.j.j.j.j.h.y     k.k.k.k.k.k.k.    ) j.j.j.j.t.=     k.k.k.k.k.k.k.k.",
"k.k.k.k.k.k.k.k.k.k.k.k.    -.j.j.j.j.f.G 6 * $ $ = y <.j.j.j.j.j.j.j.h.u     k.k.k.k.k.k.k.  . _ j.j.;.*     k.k.k.k.k.k.k.k.k.",
"k.k.k.k.k.k.k.k.k.k.k.k.  2 j.j.j.j.r.*               . ;.j.j.j.j.j.j.j.h.5     k.k.k.k.k.k.k.    X o       k.k.k.k.k.k.k.k.k.k.",
"k.k.k.k.k.k.k.k.k.k.k.    G j.j.j.j.2   1 Y 4.5.5.3.z   2 j.j.j.j.j.j.j.j.r.+   k.k.k.k.k.k.k.k.        k.k.k.k.k.k.k.k.k.k.k.k.",
"k.k.k.k.k.k.k.k.k.k.k.    <.j.j.j.;.  ; 4.5.5.5.5.5.5.@   h.j.j.j.j.j.j.j.j.>..   k.k.k.k.k.k.k.k.k.k.k.k.k.k.k.k.k.k.k.k.k.k.k.",
"k.k.k.k.k.k.k.k.k.k.k.    t.j.j.j.D   n 5.5.5.5.5.5.4.X X h.j.j.j.j.j.j.j.j.j.!     k.k.k.k.k.k.k.k.k.k.k.k.k.k.k.k.k.k.k.k.k.k.",
"k.k.k.k.k.k.k.k.k.k.k.    t.j.j.j.D   H 5.5.5.5.5.5.P   r j.j.j.j.j.j.j.j.j.j.j.V     k.k.k.k.k.k.k.k.k.k.k.k.k.k.k.k.k.k.k.k.k.",
"k.k.k.k.k.k.k.k.k.k.k.    1.j.j.j.'   , 4.5.5.5.5.5.0   _ j.j.j.j.j.j.j.j.j.j.j.j.D .           k.k.k.k.k.k.k.k.k.k.k.k.k.k.k.k.",
"k.k.k.k.k.k.k.k.k.k.k.    ! j.j.j.h.=   @ z o.4.5.3.X . h.j.j.j.j.f.:.e.j.j.j.j.j.j.2.g X             k.k.k.k.k.k.k.k.k.k.k.k.k.",
"k.k.k.k.k.k.k.k.k.k.k.k.  i j.j.j.j.t.r     . 9 z ;   M j.j.j.j.2.$     S j.j.j.j.j.j.j.j.e.>.` D :       k.k.k.k.k.k.k.k.k.k.k.",
"k.k.k.k.k.k.k.k.k.k.k.k.  u j.j.j.j.j.j.2.V +       7 f.j.j.j.j.[ . r o   2.j.j.j.j.j.j.j.j.j.j.j.h.O.:     k.k.k.k.k.k.k.k.k.k.",
"k.k.k.k.k.k.k.k.k.k.k.    ~ j.j.j.j.j.j.j.j.h.-.! >.j.j.j.j.j.j.j.j.j.h   ' j.j.j.j.j.j.j.j.j.j.j.j.d.q.t     k.k.k.k.k.k.k.k.k.",
"k.k.k.k.k.k.k.k.k.k.    r j.j.j.j.j.j.j.j.j.j.j.j.j.j.j.j.j.j.j.j.f.5   . y.j.j.y.k > 6 h A V G y.j.j.w.w.s   . k.k.k.k.k.k.k.k.",
"k.k.k.k.k.k.k.k.k.    7 h.j.j.j.j.j.j.j.j.j.j.j.j.j.j.j.j.j.j.j.j.y.o * [ j.j.j.5               + 8.j.i.w.w.c C k.k.k.k.k.k.k.k.",
"k.k.k.k.k.k.k.k.    7 h.j.j.j.j.j.j.e.t.j.j.j.j.j.j.j.j.j.j.j.j.j.j.j.j.j.j.j.2.  ; o...I K K 0   N d.i.w.w.i.a.k.k.k.k.k.k.k.k.",
"k.k.k.k.k.k.k.    7 h.j.j.j.j.j.2.-     5 r.j.j.j.j.j.j.j.j.j.j.j.j.j.j.j.j.j.`   a 5.5.4.5.5.K   j a.w.w.w.i.i.k.k.k.k.k.k.k.k.",
"k.k.k.k.k.k.    6 h.j.j.j.j.j.1.o   ; %   * f.j.j.j.j.j.j.j.j.j.j.j.j.j.j.j.j.!   z 4.5.5.5.4.%   +.w.w.w.w.9.* k.k.k.k.k.k.k.k.",
"k.k.k.k.k.k.  $ p.j.j.j.j.j.1.o   l 5.4.9   h j.j.j.j.j.j.j.j.j.j.j.j.j.j.j.j._   0 5.5.5.4.J   5 i.w.w.w.w.C     k.k.k.k.k.k.k.",
"k.k.k.k.k.    G j.j.j.j.j.1.o   l 5.5.5.3.O   r.j.j.j.j.j.j.j.j.f.e.j.j.j.j.j.f..   J 4.5.Y O   %.w.w.w.w.&..   k.k.k.k.k.k.k.k.",
"k.k.k.k.k.    r.j.j.j.j.y.+   l 5.5.5.5.5.l   ~ j.j.j.j.j.j.y.u     = [ j.j.j.j.~ .   . @     A w.w.w.w.0.$   k.k.k.k.k.k.k.k.k.",
"k.k.k.k.k.    j.j.j.j.j.j   a 5.5.5.5.5.5.J   A j.j.j.j.j.e.@ . @ *     [ j.j.j.j.-.5 . . - ~ j.w.w.w.w.c     k.k.k.k.k.k.k.k.k.",
"k.k.k.k.k.    h.j.j.j.j.-   3.5.5.5.5.5.5.m   F j.j.j.j.f.=   8 4.5.J   # h.j.j.j.j.j.j.j.j.j.j.w.w.w.w.*   k.k.k.k.k.k.k.k.k.k.",
"k.k.k.k.k.    -.j.j.j.j.6   { 4.5.5.5.5.5.9   ] j.j.j.j.N   1 5.5.5.5.9   [ j.j.j.j.j.j.j.j.j.j.i.w.w.0.    k.k.k.k.k.k.k.k.k.k.",
"k.k.k.k.k.k.  u j.j.j.j.~   % 4.5.5.5.5.{   + h.j.j.j.1.  . Y 5.5.5.5.n   F j.j.j.p.G M ~ h.j.j.d.w.w.9.    k.k.k.k.k.k.k.k.k.k.",
"k.k.k.k.k.k.    _ j.j.j.j.6   9 4.5.5.I O   ~ j.j.j.j.r . b 5.5.5.5.4.J   S j.j.t.$       > j.j.j.a.w.w..   k.k.k.k.k.k.k.k.k.k.",
"k.k.k.k.k.k.k.  . >.j.j.j.y.=   + 8 ;     A j.j.j.j.>.  @ 5.5.5.5.5.5.z   R j.j.1.. u ' u * h.j.j.j.a.w.e   k.k.k.k.k.k.k.k.k.k.",
"k.k.k.k.k.k.k.k.  + y.j.j.j.y.g       * ' j.j.j.j.j.i   C 5.5.5.5.5.5.;   <.j.j.j.h.j.j.j.j.j.j.j.j.j.a.#.    k.k.k.k.k.k.k.k.k.",
"k.k.k.k.k.k.k.k.    h j.j.j.j.j.p.1.r.j.j.j.j.j.j.j.= O 4.5.5.5.5.5.U   * j.j.j.j.j.j.j.j.j.~ k :.j.j.j.i.B     k.k.k.k.k.k.k.k.",
"k.k.k.k.k.k.k.k.k.    e.j.j.j.j.j.j.j.j.j.j.j.j.j.j.8.X.5.5.5.5.5.3.*   _ j.j.j.j.j.j.j.j.!       ~ j.j.s.w.x     k.k.k.k.k.k.k.",
"k.k.k.k.k.k.k.k.k.k.  S j.j.j.F <.j.j.j.j.j.j.j.j.j.d.5.5.5.5.5.3.1   u j.j.j.j.j.j.j.j.e.o . z .   ~ j.j.w.w.d     k.k.k.k.k.k.",
"k.k.k.k.k.k.k.k.k.k.  - j.j.e.  $ h.j.j.j.j.j.j.j.j.j.^ z } } b @   3 p.j.j.j.j.j.j.j.t.=   l 5.K .   >.j.w.w.w.4   k.k.k.k.k.k.",
"k.k.k.k.k.k.k.k.k.k.    h.j.j.y   -.j.j.j.j.j.j.j.j.j.5           j h.j.j.j.j.j.j.j.' #   8 4.5.4.n   t j.w.w.w.|     k.k.k.k.k.",
"k.k.k.k.k.k.k.k.k.k.    e.j.j.h   [ j.j.j.j.j.j.j.j.j.y.F r y D e.j.j.j.j.j.j.j.j.u     p 4.5.5.5.o.  - j.w.w.w.q.    k.k.k.k.k.",
"k.k.k.k.k.k.k.k.k.k.    2.j.t.. o f.j.j.j.j.j.j.j.j.j.j.j.j.j.j.j.j.j.j.j.j.j.j.:.  @ I 5.5.5.5.5.H   u a.w.w.w.q..   k.k.k.k.k.",
"k.k.k.k.k.k.k.k.k.k.    r.j.h.h [ j.j.j.j.j.j.j.j.j.j.j.j.j.j.j.j.j.j.j.j.j.j.j.1.  % 4.5.5.5.3.a     @.w.w.w.w.&.    k.k.k.k.k.",
"k.k.k.k.k.k.k.k.k.k.  o j.j.j.j.j.j.j.j.2.[ r.j.j.j.j.j.j.j.j.j.j.j.j.j.j.j.j.j.j.5   H 5.4.n O . X ~ i.w.w.w.w.B     k.k.k.k.k.",
"k.k.k.k.k.k.k.k.k.k.  7 j.j.j.j.j.j.r.r       k f.j.j.j.j.j.j.j.j.j.j.j.j.j.j.j.j.>.  . , @     s 7.w.w.w.w.w.$..   k.k.k.k.k.k.",
"k.k.k.k.k.k.k.k.k.    ! j.j.j.j.j.~ .   @ q O   $ ~ h.j.j.j.j.j.j.j.j.j.j.j.j.j.j.j.' +     w &.w.w.w.w.w.q.W .     k.k.k.k.k.k.",
"k.k.k.k.k.k.k.k.k.    e.j.j.j.j.2.  . l 4.5.o.0     + M _ >.2.p.j.j.j.j.j.S 5 h.j.j.d.u.&.9.w.w.w.w.6.Z t o       k.k.k.k.k.k.k.",
"k.k.k.k.k.k.k.k.k.    j.j.j.j.j.G   l 5.5.5.5.5.Y 9             7 e.j.j.j.u   D f.u.w.w.w.w.w.w.Q <           k.k.k.k.k.k.k.k.k.",
"k.k.k.k.k.k.k.k.k.    y.j.j.j.j.~   1 3.5.5.5.5.5.5.o.K a 0 1 +   $ y.j.j.;..   4 w.w.w.i.w.W #         k.k.k.k.k.k.k.k.k.k.k.k.",
"k.k.k.k.k.k.k.k.k.    _ j.j.j.j.f.$   . 0 P 4.4.5.5.5.5.5.5.5.4.0   7 h.j.j.%.d / w.w.w.*.<       k.k.k.k.k.k.k.k.k.k.k.k.k.k.k.",
"k.k.k.k.k.k.k.k.k.k.  * h.j.j.j.j.t.j o     o a { 4.5.5.5.5.5.5.4.*   G j.a.w.w.w.w.w.W .     k.k.k.k.k.k.k.k.k.k.k.k.k.k.k.k.k.",
"k.k.k.k.k.k.k.k.k.k.    6 y.j.j.j.j.j.h._ r .     % z ..5.5.5.5.5.}   - a.w.w.w.w.w.c     k.k.k.k.k.k.k.k.k.k.k.k.k.k.k.k.k.k.k.",
"k.k.k.k.k.k.k.k.k.k.k.    o N 1.j.j.j.j.j.j.y.G >       , m ..X.K ,   t w.w.w.w.w.d     k.k.k.k.k.k.k.k.k.k.k.k.k.k.k.k.k.k.k.k.",
"k.k.k.k.k.k.k.k.k.k.k.k.        : G r.j.j.j.j.j.j.2.A $             > *.w.w.w.w.B     k.k.k.k.k.k.k.k.k.k.k.k.k.k.k.k.k.k.k.k.k.",
"k.k.k.k.k.k.k.k.k.k.k.k.k.k.k.        6 ~ f.j.j.j.j.j.j.;.N 5 5 g ( w.w.w.i.w.T     k.k.k.k.k.k.k.k.k.k.k.k.k.k.k.k.k.k.k.k.k.k.",
"k.k.k.k.k.k.k.k.k.k.k.k.k.k.k.k.k.        . s -.j.j.j.j.j.j.h.s.i.w.w.w.w.i.T     k.k.k.k.k.k.k.k.k.k.k.k.k.k.k.k.k.k.k.k.k.k.k.",
"k.k.k.k.k.k.k.k.k.k.k.k.k.k.k.k.k.k.k.k.        + c ,.s.a.a.i.w.w.w.w.w.6.s     k.k.k.k.k.k.k.k.k.k.k.k.k.k.k.k.k.k.k.k.k.k.k.k.",
"k.k.k.k.k.k.k.k.k.k.k.k.k.k.k.k.k.k.k.k.k.k.k.        = C $.w.w.w.0.| d X     k.k.k.k.k.k.k.k.k.k.k.k.k.k.k.k.k.k.k.k.k.k.k.k.k.",
"k.k.k.k.k.k.k.k.k.k.k.k.k.k.k.k.k.k.k.k.k.k.k.k.k.k.        . + o           k.k.k.k.k.k.k.k.k.k.k.k.k.k.k.k.k.k.k.k.k.k.k.k.k.k.",
"k.k.k.k.k.k.k.k.k.k.k.k.k.k.k.k.k.k.k.k.k.k.k.k.k.k.k.k.k.            k.k.k.k.k.k.k.k.k.k.k.k.k.k.k.k.k.k.k.k.k.k.k.k.k.k.k.k.k."
};
