/* XPM */
static char *a0d16e689b1747f1a12b7e77bb497309ZDuZdOrzJkKy74wC[] = {
/* columns rows colors chars-per-pixel */
"67 69 14 1 ",
"  c None",
". c black",
"X c #232323",
"o c #353535",
"O c gray26",
"+ c #8F8E03",
"@ c #A8A603",
"# c #CBC804",
"$ c #00A0AF",
"% c #00C3D5",
"& c #6CCCD5",
"* c gray59",
"= c gray65",
"- c #C4D4D5",
/* pixels */
"                                                                   ",
"                                                                   ",
"                                                                   ",
"                                                                   ",
"                                                                   ",
"                                                                   ",
"                                                                   ",
"                                                                   ",
"                                                                   ",
"                      .......                                      ",
"                      .oo.........                                 ",
"                     .oOOoooo.........                             ",
"                     .oOOOOOOooooo.......                          ",
"                    .oOOOOOOOoOOOOoooo.....                        ",
"                    .oOOOOOOOoOOOOOOOoooooo...                     ",
"                   .oOOOOOOOoOOOOOOOOOOoOOOooo.                    ",
"                   .oOOOOOOOoOOOOOOOOOOoOOOOOo.                    ",
"                  .oOOOOOOOOoOOOOOOOOOoOOOOOOo.                    ",
"                  .oOOOOOOOoOOOOOOOOOOoOOOOOOOo.                   ",
"                 .oOOOOOOOOoOOOOOOOOOo.ooooOOOo.                   ",
"                 .oOOOOOOOOoOOOOOOOOOo.....ooooo.                  ",
"                .oOOOOOOOOOoOOOOOOOOOo..XXX......                  ",
"                .oOOOOOOOOoOOOOOOOOOo.XXXoXXX.                     ",
"               .oOOOOOOOOOoOOOOOOOOOo.XXoooXX.                     ",
"               .oOOOOOOOOOoOOOOOOOOOo.XooooX.                      ",
"              .oOOOOOOOOOoOOOOOOOOOo.XXoooOo.                      ",
"           ....oOOOOOOOOOoOOOOOOOOOo.XXooOOo.                      ",
"         ..==.ooOOOOOOOOOoOOOOOOOOOo.XXooOO.                       ",
"        .==**.oooOOOOOOOoOOOOOOOOOoo.XoooOO.                       ",
"       .=**..o.oooOOOOOOoOOOOOOOooo.XXoooO.                        ",
"       .*..ooOO.ooooooooooooooooooo.XXooo..                        ",
"       ..ooooOOO.ooo.......................                        ",
"      .ooOo#+oOOO...oooooooooooooooooooooo.*****   $$$             ",
"      .oOo+@#oOOOo.ooOOOOOOOOOOOOOOOOOOOOoo.====**$%%%$$           ",
"     ..oOo@+@oOOOo.oOOOOOOOOOOOOOOOOOOOOOOo.******%&&&%%$$         ",
"     ..oOo#@oOOOOo.oOOOOOOOOOOOOOOOOOOOOOOo.=====*&---&&%%$$       ",
"     ..oOo@#oOOOOo.oOOOOOOOOOOOOOOOOOOOOOOo.******-------&%%$$     ",
"     ..oOo@#oOOOOo.oOOOOOOOOOOOOOOOOOOOOOOo.******-------&%%$$     ",
"     ..oOo#@oOOOOo.oOOOOOOOOOOOOOOOOOOOOOOo.=====*&---&&%%$$       ",
"     ..oOo@+@oOOOo.oOOOOOOOOOOOOOOOOOOOOOOo.******%&&&%%$$         ",
"      .oOo+@#oOOOo.ooOOOOOOOOOOOOOOOOOOOOoo.====**$%%%$$           ",
"      .ooOo#+oOOO...oooooooooooooooooooooo.*****   $$$             ",
"       ..ooooOOO.ooo.......................                        ",
"       .*..ooOO.ooooooooooooooooooo.XXooo..                        ",
"       .=**..o.oooOOOOOOoOOOOOOOooo.XXoooO.                        ",
"        .==**.oooOOOOOOOoOOOOOOOOOoo.XoooOO.                       ",
"         ..==.ooOOOOOOOOOoOOOOOOOOOo.XXooOO.                       ",
"           ....oOOOOOOOOOoOOOOOOOOOo.XXooOOo.                      ",
"              .oOOOOOOOOOoOOOOOOOOOo.XXoooOo.                      ",
"               .oOOOOOOOOOoOOOOOOOOOo.XooooX.                      ",
"               .oOOOOOOOOOoOOOOOOOOOo.XXoooXX.                     ",
"                .oOOOOOOOOoOOOOOOOOOo.XXXoXXX.                     ",
"                .oOOOOOOOOOoOOOOOOOOOo..XXX......                  ",
"                 .oOOOOOOOOoOOOOOOOOOo.....ooooo.                  ",
"                 .oOOOOOOOOoOOOOOOOOOo.ooooOOOo.                   ",
"                  .oOOOOOOOoOOOOOOOOOOoOOOOOOOo.                   ",
"                  .oOOOOOOOOoOOOOOOOOOoOOOOOOo.                    ",
"                   .oOOOOOOOoOOOOOOOOOOoOOOOOo.                    ",
"                   .oOOOOOOOoOOOOOOOOOOoOOOooo.                    ",
"                    .oOOOOOOOoOOOOOOOoooooo...                     ",
"                    .oOOOOOOOoOOOOoooo.....                        ",
"                     .oOOOOOOooooo.......                          ",
"                     .oOOoooo.........                             ",
"                      .oo.........                                 ",
"                      .......                                      ",
"                                                                   ",
"                                                                   ",
"                                                                   ",
"                                                                   "
};
