/* XPM */
static char *ba7ad94d215c4127c3537631248f07e3Y7lEFCn79lQMj8Ap[] = {
/* columns rows colors chars-per-pixel */
"78 76 14 1 ",
"  c None",
". c black",
"X c #232323",
"o c #353535",
"O c gray26",
"+ c #8F8E03",
"@ c #A8A603",
"# c #CBC804",
"$ c #00A0AF",
"% c #00C3D5",
"& c #6CCCD5",
"* c gray59",
"= c gray65",
"- c #C4D4D5",
/* pixels */
"                                                                              ",
"                                                                              ",
"                                                                              ",
"                                                                              ",
"                                                                              ",
"                                                                              ",
"                                                                              ",
"                                                                              ",
"                                                                              ",
"                                                                              ",
"                                    ......                                    ",
"                                  ..........                                  ",
"                               ...oooooooooo...                               ",
"                              .=*.oOOOOOOOOo.*=.                              ",
"                             .=*.oOooooooooOo.*=.                             ",
"                             .=*.oo+@#@@#@+oo.*=.                             ",
"                            .=*.oo#@+@##@+@#oo.*=.                            ",
"                            .=*.oo+#@oooo@#+oo.*=.                            ",
"                            ...oOOoooOOOOoooOOo...                            ",
"                           ..oo.OOOOOOOOOOOOOO.oo..                           ",
"                         ..ooooo.OOOOOOOOOOOO.ooooo..                         ",
"                       ..ooOOOooo.OOOOOOOOOO.oooOOOoo..                       ",
"                     ..ooOOOOOOooo.oooooooo.oooOOOOOOoo..                     ",
"                   ..ooOOOOOOOOOoo..........ooOOOOOOOOOoo..                   ",
"                 ..ooOOOOOOOOOOOoo.oooooooo.ooOOOOOOOOOOOoo..                 ",
"               ..ooOOOOOOOOOOOOOo.ooOOOOOOoo.oOOOOOOOOOOOOOoo..               ",
"             ..ooOOOOOOOOOOOOOOOo.oOOOOOOOOo.oOOOOOOOOOOOOOOOoo..             ",
"           ..ooOOOOOOOOOOOOOOOOOo.oOOOOOOOOo.oOOOOOOOOOOOOOOOOOoo..           ",
"           .oOOOOOOOOOOOOOOOOOOOo.oOOOOOOOOo.oOOOOOOOOOOOOOOOOOOOo.           ",
"           .oOOOOOOOOOOOOOOOOOooo.oOOOOOOOOo.oooOOOOOOOOOOOOOOOOOo.           ",
"           ..oOOOOOOOOOOOOOoooOOo.oOOOOOOOOo.oOOoooOOOOOOOOOOOOOo..           ",
"           ..oOOOOOOOOOOoooOOOOOo.oOOOOOOOOo.oOOOOOoooOOOOOOOOOOo..           ",
"           ..oOOOOOOooooOOOOOOOOo.oOOOOOOOOo.oOOOOOOOOooooOOOOOOo..           ",
"           ..oOOOoooOOOOOOOOOOOOo.oOOOOOOOOo.oOOOOOOOOOOOOoooOOOo..           ",
"            ..oooOOOOOOOOOOOOOOOo.oOOOOOOOOo.oOOOOOOOOOOOOOOOooo..            ",
"            ..oOOOOOOOOOOOOOOOOOo.oOOOOOOOOo.oOOOOOOOOOOOOOOOOOo..            ",
"            ..oOOOOOOOOOOOOOOOOOo.oOOOOOOOOo.oOOOOOOOOOOOOOOOOOo..            ",
"            ..oOOOOOOOOOOOOOOOOoo.oOOOOOOOOo.ooOOOOOOOOOOOOOOOOo..            ",
"            ..oOOOOOOOOOOOOOOOOoo.oOOOOOOOOo.ooOOOOOOOOOOOOOOOOo..            ",
"             ..oOOOOOOOOOOOOOOooo.oOOOOOOOOo.oooOOOOOOOOOOOOOOo..             ",
"             ..oOOOOOOOOOOOoooo...oOOOOOOOOo...ooooOOOOOOOOOOOo..             ",
"             ..oOOOOOOOOooo....XX.oOOOOOOOOo.XX....oooOOOOOOOOo..             ",
"             ..ooOOOOooo...XXXXXX.oOOOOOOOOo.XXXXXX...oooOOOOoo..             ",
"              ..oOOoo...XXXXXXooo.oOOOOOOOOo.oooXXXXXX...ooOOo..              ",
"              ..oooOOo..XXooooooo.oOOOOOOOOo.oooooooXX..oOOooo..              ",
"              ..oOOOOo.XXoooooooo.oOOOOOOOOo.ooooooooXX.oOOOOo..              ",
"               .oOOOOo.XooooOOOO..ooOOOOOOoo..OOOOooooX.oOOOOo.               ",
"               .oOOOOo.XXooOOOO....oooooooo....OOOOooXX.oOOOOo.               ",
"                .oOOOOo.XXXoo..   *........*   ..ooXXX.oOOOOo.                ",
"                .oOOOOo.XX...     *=*=**=*=*     ...XX.oOOOOo.                ",
"                .oooOOo...        *=*=**=*=*        ...oOOooo.                ",
"                 ...ooo.          *=*=**=*=*          .ooo...                 ",
"                    ..o.          *=*=**=*=*          .o..                    ",
"                      ..           **=**=**           ..                      ",
"                                   ********                                   ",
"                                   $%&--&%$                                   ",
"                                  $%&----&%$                                  ",
"                                  $%&----&%$                                  ",
"                                  $%&----&%$                                  ",
"                                   $%&--&%$                                   ",
"                                   $%&--&%$                                   ",
"                                    $%--%$                                    ",
"                                    $%&&%$                                    ",
"                                     $%%$                                     ",
"                                     $%%$                                     ",
"                                      $$                                      ",
"                                      $$                                      ",
"                                                                              ",
"                                                                              ",
"                                                                              ",
"                                                                              ",
"                                                                              ",
"                                                                              ",
"                                                                              ",
"                                                                              ",
"                                                                              "
};
