/* XPM */
static char *_e091caa4f884506bdc82cc089a4136ftSASMJDyvuhmLUZg[] = {
/* columns rows colors chars-per-pixel */
"67 69 14 1 ",
"  c None",
". c black",
"X c #232323",
"o c #353535",
"O c gray26",
"+ c #8F8E03",
"@ c #A8A603",
"# c #CBC804",
"$ c #00A0AF",
"% c #00C3D5",
"& c #6CCCD5",
"* c gray59",
"= c gray65",
"- c #C4D4D5",
/* pixels */
"                                                                   ",
"                                                                   ",
"                                                                   ",
"                                                                   ",
"                                                                   ",
"                                                                   ",
"                                                                   ",
"                                                                   ",
"                                                                   ",
"                                      .......                      ",
"                                 .........oo.                      ",
"                             .........ooooOOo.                     ",
"                          .......oooooOOOOOOo.                     ",
"                        .....ooooOOOOoOOOOOOOo.                    ",
"                     ...ooooooOOOOOOOoOOOOOOOo.                    ",
"                    .oooOOOoOOOOOOOOOOoOOOOOOOo.                   ",
"                    .oOOOOOoOOOOOOOOOOoOOOOOOOo.                   ",
"                    .oOOOOOOoOOOOOOOOOoOOOOOOOOo.                  ",
"                   .oOOOOOOOoOOOOOOOOOOoOOOOOOOo.                  ",
"                   .oOOOoooo.oOOOOOOOOOoOOOOOOOOo.                 ",
"                  .ooooo.....oOOOOOOOOOoOOOOOOOOo.                 ",
"                  ......XXX..oOOOOOOOOOoOOOOOOOOOo.                ",
"                     .XXXoXXX.oOOOOOOOOOoOOOOOOOOo.                ",
"                     .XXoooXX.oOOOOOOOOOoOOOOOOOOOo.               ",
"                      .XooooX.oOOOOOOOOOoOOOOOOOOOo.               ",
"                      .oOoooXX.oOOOOOOOOOoOOOOOOOOOo.              ",
"                      .oOOooXX.oOOOOOOOOOoOOOOOOOOOo....           ",
"                       .OOooXX.oOOOOOOOOOoOOOOOOOOOoo.==..         ",
"                       .OOoooX.ooOOOOOOOOOoOOOOOOOooo.**==.        ",
"                        .OoooXX.oooOOOOOOOoOOOOOOooo.o..**=.       ",
"                        ..oooXX.ooooooooooooooooooo.OOoo..*.       ",
"                        .......................ooo.OOOoooo..       ",
"             $$$   *****.oooooooooooooooooooooo...OOOo+#oOoo.      ",
"           $$%%%$**====.ooOOOOOOOOOOOOOOOOOOOOoo.oOOOo#@+oOo.      ",
"         $$%%&&&%******.oOOOOOOOOOOOOOOOOOOOOOOo.oOOOo@+@oOo..     ",
"       $$%%&&---&*=====.oOOOOOOOOOOOOOOOOOOOOOOo.oOOOOo@#oOo..     ",
"     $$%%&-------******.oOOOOOOOOOOOOOOOOOOOOOOo.oOOOOo#@oOo..     ",
"     $$%%&-------******.oOOOOOOOOOOOOOOOOOOOOOOo.oOOOOo#@oOo..     ",
"       $$%%&&---&*=====.oOOOOOOOOOOOOOOOOOOOOOOo.oOOOOo@#oOo..     ",
"         $$%%&&&%******.oOOOOOOOOOOOOOOOOOOOOOOo.oOOOo@+@oOo..     ",
"           $$%%%$**====.ooOOOOOOOOOOOOOOOOOOOOoo.oOOOo#@+oOo.      ",
"             $$$   *****.oooooooooooooooooooooo...OOOo+#oOoo.      ",
"                        .......................ooo.OOOoooo..       ",
"                        ..oooXX.ooooooooooooooooooo.OOoo..*.       ",
"                        .OoooXX.oooOOOOOOOoOOOOOOooo.o..**=.       ",
"                       .OOoooX.ooOOOOOOOOOoOOOOOOOooo.**==.        ",
"                       .OOooXX.oOOOOOOOOOoOOOOOOOOOoo.==..         ",
"                      .oOOooXX.oOOOOOOOOOoOOOOOOOOOo....           ",
"                      .oOoooXX.oOOOOOOOOOoOOOOOOOOOo.              ",
"                      .XooooX.oOOOOOOOOOoOOOOOOOOOo.               ",
"                     .XXoooXX.oOOOOOOOOOoOOOOOOOOOo.               ",
"                     .XXXoXXX.oOOOOOOOOOoOOOOOOOOo.                ",
"                  ......XXX..oOOOOOOOOOoOOOOOOOOOo.                ",
"                  .ooooo.....oOOOOOOOOOoOOOOOOOOo.                 ",
"                   .oOOOoooo.oOOOOOOOOOoOOOOOOOOo.                 ",
"                   .oOOOOOOOoOOOOOOOOOOoOOOOOOOo.                  ",
"                    .oOOOOOOoOOOOOOOOOoOOOOOOOOo.                  ",
"                    .oOOOOOoOOOOOOOOOOoOOOOOOOo.                   ",
"                    .oooOOOoOOOOOOOOOOoOOOOOOOo.                   ",
"                     ...ooooooOOOOOOOoOOOOOOOo.                    ",
"                        .....ooooOOOOoOOOOOOOo.                    ",
"                          .......oooooOOOOOOo.                     ",
"                             .........ooooOOo.                     ",
"                                 .........oo.                      ",
"                                      .......                      ",
"                                                                   ",
"                                                                   ",
"                                                                   ",
"                                                                   "
};
