/* XPM */
static char *_1e80ae763e44895f2db6dbf261316f2L6EwrIi3B1lJRHbS[] = {
/* columns rows colors chars-per-pixel */
"67 69 14 1 ",
"  c None",
". c black",
"X c #232323",
"o c #353535",
"O c gray26",
"+ c #8F8E03",
"@ c #A8A603",
"# c #CBC804",
"$ c #00A0AF",
"% c #00C3D5",
"& c #6CCCD5",
"* c gray59",
"= c gray65",
"- c #C4D4D5",
/* pixels */
"                                                                   ",
"                                                                   ",
"                                                                   ",
"                                                                   ",
"                                                                   ",
"                                                                   ",
"                                 $$                                ",
"                                 $$                                ",
"                                $%%$                               ",
"                                $%%$                               ",
"                               $%&&%$                              ",
"                               $%--%$                              ",
"                              $%&--&%$                             ",
"                              $%&--&%$                             ",
"                             $%&----&%$                            ",
"                             $%&----&%$                            ",
"                             $%&----&%$                            ",
"                              $%&--&%$                             ",
"                              ********                             ",
"                 ..           **=**=**           ..                ",
"               ..o.          *=*=**=*=*          .o..              ",
"            ...ooo.          *=*=**=*=*          .ooo...           ",
"           .oooOOo...        *=*=**=*=*        ...oOOooo.          ",
"           .oOOOOo.XX...     *=*=**=*=*     ...XX.oOOOOo.          ",
"           .oOOOOo.XXXoo..   *........*   ..ooXXX.oOOOOo.          ",
"          .oOOOOo.XXooOOOO....oooooooo....OOOOooXX.oOOOOo.         ",
"          .oOOOOo.XooooOOOO..ooOOOOOOoo..OOOOooooX.oOOOOo.         ",
"         ..oOOOOo.XXoooooooo.oOOOOOOOOo.ooooooooXX.oOOOOo..        ",
"         ..oooOOo..XXooooooo.oOOOOOOOOo.oooooooXX..oOOooo..        ",
"         ..oOOoo...XXXXXXooo.oOOOOOOOOo.oooXXXXXX...ooOOo..        ",
"        ..ooOOOOooo...XXXXXX.oOOOOOOOOo.XXXXXX...oooOOOOoo..       ",
"        ..oOOOOOOOOooo....XX.oOOOOOOOOo.XX....oooOOOOOOOOo..       ",
"        ..oOOOOOOOOOOOoooo...oOOOOOOOOo...ooooOOOOOOOOOOOo..       ",
"        ..oOOOOOOOOOOOOOOooo.oOOOOOOOOo.oooOOOOOOOOOOOOOOo..       ",
"       ..oOOOOOOOOOOOOOOOOoo.oOOOOOOOOo.ooOOOOOOOOOOOOOOOOo..      ",
"       ..oOOOOOOOOOOOOOOOOoo.oOOOOOOOOo.ooOOOOOOOOOOOOOOOOo..      ",
"       ..oOOOOOOOOOOOOOOOOOo.oOOOOOOOOo.oOOOOOOOOOOOOOOOOOo..      ",
"       ..oOOOOOOOOOOOOOOOOOo.oOOOOOOOOo.oOOOOOOOOOOOOOOOOOo..      ",
"       ..oooOOOOOOOOOOOOOOOo.oOOOOOOOOo.oOOOOOOOOOOOOOOOooo..      ",
"      ..oOOOoooOOOOOOOOOOOOo.oOOOOOOOOo.oOOOOOOOOOOOOoooOOOo..     ",
"      ..oOOOOOOooooOOOOOOOOo.oOOOOOOOOo.oOOOOOOOOooooOOOOOOo..     ",
"      ..oOOOOOOOOOOoooOOOOOo.oOOOOOOOOo.oOOOOOoooOOOOOOOOOOo..     ",
"      ..oOOOOOOOOOOOOOoooOOo.oOOOOOOOOo.oOOoooOOOOOOOOOOOOOo..     ",
"      .oOOOOOOOOOOOOOOOOOooo.oOOOOOOOOo.oooOOOOOOOOOOOOOOOOOo.     ",
"      .oOOOOOOOOOOOOOOOOOOOo.oOOOOOOOOo.oOOOOOOOOOOOOOOOOOOOo.     ",
"      ..ooOOOOOOOOOOOOOOOOOo.oOOOOOOOOo.oOOOOOOOOOOOOOOOOOoo..     ",
"        ..ooOOOOOOOOOOOOOOOo.oOOOOOOOOo.oOOOOOOOOOOOOOOOoo..       ",
"          ..ooOOOOOOOOOOOOOo.ooOOOOOOoo.oOOOOOOOOOOOOOoo..         ",
"            ..ooOOOOOOOOOOOoo.oooooooo.ooOOOOOOOOOOOoo..           ",
"              ..ooOOOOOOOOOoo..........ooOOOOOOOOOoo..             ",
"                ..ooOOOOOOooo.oooooooo.oooOOOOOOoo..               ",
"                  ..ooOOOooo.OOOOOOOOOO.oooOOOoo..                 ",
"                    ..ooooo.OOOOOOOOOOOO.ooooo..                   ",
"                      ..oo.OOOOOOOOOOOOOO.oo..                     ",
"                       ...oOOoooOOOOoooOOo...                      ",
"                       .=*.oo+#@oooo@#+oo.*=.                      ",
"                       .=*.oo#@+@##@+@#oo.*=.                      ",
"                        .=*.oo+@#@@#@+oo.*=.                       ",
"                        .=*.oOooooooooOo.*=.                       ",
"                         .=*.oOOOOOOOOo.*=.                        ",
"                          ...oooooooooo...                         ",
"                             ..........                            ",
"                               ......                              ",
"                                                                   ",
"                                                                   ",
"                                                                   ",
"                                                                   ",
"                                                                   ",
"                                                                   "
};
