/* XPM */
static char *ff4f351c63204c7c9c66a086b19f4d848IhOMplySL1ZDkEq[] = {
/* columns rows colors chars-per-pixel */
"64 64 148 2 ",
"   c None",
".  c #000000",
"X  c #030C05",
"o  c #0A0905",
"O  c #060F08",
"+  c #080A08",
"@  c #001404",
"#  c #001A02",
"$  c #071209",
"%  c #08160B",
"&  c #011C08",
"*  c #0B1E0F",
"=  c #131207",
"-  c #1F1C0C",
";  c #0B1E10",
":  c #121F14",
">  c #1E1C11",
",  c #171F18",
"<  c #002102",
"1  c #002C03",
"2  c #00280B",
"3  c #00250B",
"4  c #003203",
"5  c #003A04",
"6  c #00300E",
"7  c #0D2A14",
"8  c #102A15",
"9  c #182019",
"0  c #003610",
"q  c #003C11",
"w  c #123119",
"e  c #173C1F",
"r  c #322D12",
"t  c #173E20",
"y  c #004405",
"u  c #005806",
"i  c #04520A",
"p  c #005318",
"a  c #006107",
"s  c #02660A",
"d  c #007208",
"f  c #007B08",
"g  c #00651D",
"h  c #1D4C27",
"j  c #26432A",
"k  c #2F4F34",
"l  c #334335",
"z  c #375C3C",
"x  c #305034",
"c  c #007020",
"v  c #007D24",
"b  c #127B2F",
"n  c #286A36",
"m  c #35683F",
"M  c #2C753C",
"N  c #3F5241",
"B  c #3D6642",
"V  c #2F7E40",
"C  c #485F4A",
"Z  c #45744B",
"A  c #506952",
"S  c #4B7250",
"D  c #547357",
"F  c #5A765C",
"G  c #00860A",
"H  c #008D0A",
"J  c #00920A",
"K  c #009E0C",
"L  c #00A30C",
"P  c #00AE0C",
"I  c #00B10C",
"U  c #00BE0E",
"Y  c #008426",
"T  c #01912B",
"R  c #019C2D",
"E  c #108F33",
"W  c #00A52F",
"Q  c #00A630",
"!  c #04AA33",
"~  c #14AE3E",
"^  c #00C20E",
"/  c #00CA0F",
"(  c #09CD1A",
")  c #00CE3B",
"_  c #00D43D",
"`  c #2F8341",
"'  c #328544",
"]  c #289743",
"[  c #309848",
"{  c #3A9A4E",
"}  c #30A24B",
"|  c #3EA454",
" . c #3FAB56",
".. c #3FB359",
"X. c #4D8154",
"o. c #558F5D",
"O. c #57915F",
"+. c #40AA56",
"@. c #41AE59",
"#. c #43B35B",
"$. c #46BA5F",
"%. c #599361",
"&. c #5F9F68",
"*. c #658568",
"=. c #67956C",
"-. c #6F9272",
";. c #729675",
":. c #6BA172",
">. c #71A277",
",. c #08D542",
"<. c #16D74B",
"1. c #1CD84F",
"2. c #21D953",
"3. c #2DDA5A",
"4. c #42DE67",
"5. c #51D96E",
"6. c #51D76E",
"7. c #52DE70",
"8. c #54E072",
"9. c #938736",
"0. c #CBBB4B",
"q. c #DAC850",
"w. c #FEE95D",
"e. c #CFC16A",
"r. c #D0C26A",
"t. c #DACD7B",
"y. c #D0C475",
"u. c #FEEC79",
"i. c #7FA783",
"p. c #76E68C",
"a. c #88E495",
"s. c #8AE897",
"d. c #8DE899",
"f. c #90E99C",
"g. c #98EAA2",
"h. c #A3ECAB",
"j. c #AEEEB4",
"k. c #B6EFBB",
"l. c #BAF0BF",
"z. c #FEEF8F",
"x. c #C5F2CA",
"c. c #C1F1C5",
"v. c #CDF4D0",
"b. c #D7F7DA",
"n. c #DFF8E1",
"m. c #E8FAEA",
"M. c white",
"N. c #F2FCF2",
/* pixels */
"                                                                                                                  . .           ",
"                                                                                                                  . .           ",
"                                                                                                                  . . .         ",
"                                                                                                                . . . .         ",
"                                                                                                              . . = 9.. . .     ",
"                                                                                                          . . . . 0.w.9.. . . . ",
"                                        . . . . . . . . . . . . . . . . . . . . . . . .                   . . . . r 0.= . . . . ",
"                                      . . . 1 5 y y y y y y y y y y y y y y y y y 1 . . .                       . . . . .       ",
"                                    . . h . 5 I U / / / / / / / / / / / / / / / / y . h X .                       . . .         ",
"                                  . X | 7.% . H I U U ^ U U ^ U U U U U U ^ U ^ K . % 5.+.X .                     . .           ",
"                                . X | 8.7.V . 5 P P I I P P I P I I P P I P P P 5 . b 8.8.+.X .                   . .           ",
"                              . X | 8.8.7.7.% . y y y y y y y y y y y y y y y y . @ ) 2.7.7.| X .                               ",
"                            . X } 8.8.8.8.#.O . . . . . . . . . . . . . . . . . . X Q _ 2.8.8. .X .                             ",
"                          . . R _ <.4.8.#.O . + . c R | | | | | +.+.+.+.| | M . X . @ Q _ 2.8.8.+.. .                           ",
"                        . . . 6 R _ _ ~ $ . A ;.. q _ 2.8.8.8.8.7.7.7.7.7.8.t . o.Z . X Q _ 2. .e . . .                         ",
"                        . . @ . . 0 Y X . S j.k., . & & * * * * * * : * ; ; . 9 a.g.F . X Y 0 . . @ . .                         ",
"                        . . H d < . . . x s.d.:.X . . . . . . . . . . . . . . . =.j.k.N . . . # G L . .                         ",
"                        . . H I / f . . . j S X . =.k.k.k.k.k.k.k.k.k.k.k.k.;.X X *.l . . . d P / L . .                         ",
"                        . . H P / U . $ ; . X . O.h.k.k.k.k.k.k.k.k.k.k.k.k.k.;.. . . ; $ . L I / L . .                         ",
"                        . . H I / U . 8 7.n . z s.j.x.l.k.c.x.k.k.k.k.k.k.k.k.k.C . n 7.8 . L I / L . .                         ",
"                        . . H P / U . 8 7.{ . B s.b.M.v.k.m.M.l.k.k.k.k.k.k.k.k.A . { 8.8 . L I / L . .                         ",
"                        . . H I / U . 8 8.{ . B d.x.m.x.k.m.m.l.k.k.k.k.k.k.k.k.A . { 8.8 . L I / L . .                         ",
"                        . . H I / U . 8 8.{ . B s.h.k.k.k.k.k.k.k.k.k.k.k.k.k.k.;.j #.8.8 . L I / L . .                         ",
"                        . . H I / U . 8 8.{ . B s.h.k.k.k.k.k.k.k.k.k.k.k.k.k.k.k.p.8.8.8 . L I / L . .                         ",
"                        . . H P / U . 8 8.{ . B s.h.k.k.k.k.k.k.k.k.k.k.k.k.k.k.i.m $.8.8 . L I / L . .                         ",
"                        . . H I / U . 8 8.{ . B s.h.k.k.k.k.k.k.k.k.k.k.k.k.k.k.A . { 8.8 . L I / L . .                         ",
"                        . . H P / U . 8 8.{ . B s.h.k.k.k.k.k.k.k.k.k.k.k.k.k.k.A . { 8.8 . L I / L . .                         ",
"                        . . H I / U . 8 8.{ . B s.h.k.k.k.k.k.k.k.k.k.k.k.k.k.k.A . { 8.8 . L I / L . .                         ",
"                        . . H I / U . 8 8.{ . B s.h.k.k.k.k.k.k.k.k.k.k.k.k.k.k.A . { 8.8 . L I / L . .                         ",
"                        . . H I / U . 8 8.{ . B s.h.k.k.k.k.k.k.k.k.k.k.k.k.k.k.A . { 8.8 . L I / L . .                         ",
"                        . . H P / U . 8 8.{ . B s.h.k.k.k.k.k.k.k.k.k.k.k.k.k.k.A . { 8.8 . L I / L . .                         ",
"                        . . H I / U . 8 8.{ . B s.h.k.k.k.k.k.k.k.k.k.k.k.k.k.k.A . { 8.8 . L I / L . .                         ",
"                        . . H P / U . 8 8.{ . B s.h.k.k.k.k.k.k.k.k.k.k.k.k.k.k.A . { 8.8 . L I / L . .                         ",
"                        . . H I / U . 8 8.{ . B s.h.k.k.k.k.k.k.k.k.k.k.k.k.k.k.A . { 8.8 . L I / L . .                         ",
"                        . . H I / U . 8 8.{ . B s.h.k.k.k.k.k.k.k.k.k.k.k.k.k.k.A . { 8.8 . L I / L . .                         ",
"                        . . H I / U . 8 8.{ . B s.h.k.k.k.k.k.k.k.k.k.k.k.k.k.k.A . { 8.8 . L I / L . .                         ",
"                        . . H P / U . 8 8.{ . B s.h.k.k.k.k.k.k.k.k.k.k.k.k.k.k.A . { 8.8 . L I / L . .                         ",
"                        . . H I / U . 8 8.{ . B s.h.k.k.k.k.k.k.k.k.k.k.k.k.k.k.A . { 8.8 . L I / L . .                         ",
"                        . . H P / U . 8 8.{ . B s.h.k.k.k.k.k.k.k.l.k.k.k.k.k.k.A . { 8.8 . L I / L . .                         ",
"                        . . H I / / u V 8.{ . B s.h.k.k.k.k.k.k.k.k.k.k.k.k.k.k.A . { 8.8 . L I / L . .                         ",
"                        . . H I / / ( 7.8.{ . C s.h.k.k.k.k.k.k.k.k.k.k.k.k.k.k.A . { 7.8 . L I / L . .                         ",
"                        . . H I / ^ i M 8.{ . B s.h.k.k.k.k.k.k.k.k.k.k.k.k.k.k.A . { 8.8 . L I / L . .                         ",
"                        . . H P / U . 8 8.] . B s.h.k.k.k.k.k.k.k.k.k.k.k.k.k.k.A . [ 8.8 . L I / L . .                         ",
"                        . . H I / U . 7 <.T . B s.h.k.k.k.k.k.k.k.k.k.k.k.k.k.k.A . T 2.7 . L I / L . .                         ",
"                        . . H P / I . 2 _ g . z s.d.j.k.k.k.k.k.k.k.k.k.k.k.k.k.C . g _ 3 . L I / L . .                         ",
"                        . . H P U L . @ < . . . O.s.d.f.f.f.f.f.f.f.f.f.f.f.f.%.. . . & @ . L P ^ L . .                         ",
"                        . . H P P d . . . j X.X . %.s.s.s.s.s.s.s.s.s.s.s.s.%.. X *.l . . . d P P J . .                         ",
"                        . . H f < . . . x d.f.;.X . . . . . . . . . . . . . . X =.j.k.z . . . < f H . .                         ",
"                        . . # . . w ' $ . D k.k.9 . & & * * ; * * ; * ; * * . : s.g.F . O ' w . . @ . .                         ",
"              .         . . . 3 E 7.8.#.$ . A ;.. q _ 3.8.8.8.8.8.8.8.8.8.8.e . o.Z . O @.8.7.+.w . . .                         ",
"              .           . X W _ <.7.8.#.O . + . v ! ..#.#.#.#.#.#.#.#.#.#.' . X . O @.8.8.8.8.+.X .                           ",
"            . . .           . X Q _ <.7.8.#.O . . . . . . . . . . . . . . . . . . X Q 3.8.8.7.#.O .                             ",
"            . . .             . X Q _ <.8.5.* . 5 5 y y y y y y y y y y y y y y . & _ ,.7.8.#.X .                               ",
"          . . + . .             . X Q _ <.` . 5 P U / / / / / / / / / / / / / / 5 . v _ 3.#.O .                                 ",
"        . . > t.> . .             . X Q ) & . H P U U U U U U U U U U U U U U U K . @ ) ! O .                                   ",
"    . . . - r.z.y.> . . .           . X p . 5 I P P P P P P P P P P P P P P P P P 5 . p X .                                     ",
". . . . o q.w.u.z.t.+ . . . .         . . . 4 y y y y y y y y y P L y a I G y y y 4 . . .                                       ",
"    . . . - 0.w.e.> . . .               . . . . . . . . X . . . U J . # U u . . . . . .                                         ",
"        . . - q.- . .                                                                                                           ",
"          . . o . .                                                                                                             ",
"            . . .                                                                                                               ",
"            . . .                                                                                                               ",
"              .                                                                                                                 ",
"              .                                                                                                                 "
};
