/* XPM */
static char *d7e2bffbde8e4d0b96963926f95dbb42y6PQ3jcvpCDNteIB[] = {
/* columns rows colors chars-per-pixel */
"64 64 175 2 ",
"   c None",
".  c #192F5D",
"X  c #19305C",
"o  c #283B5E",
"O  c #1B3163",
"+  c #1E326B",
"@  c #1F3370",
"#  c #353768",
"$  c #213474",
"%  c #23357B",
"&  c #2F3565",
"*  c #41396D",
"=  c #4F3D73",
"-  c #3E495F",
";  c #334662",
":  c #384B63",
">  c #3E5064",
",  c #425365",
"<  c #42407C",
"1  c #4C5170",
"2  c #5F577B",
"3  c #6B437F",
"4  c #665C79",
"5  c #59676A",
"6  c #727D6F",
"7  c #68746D",
"8  c #FF3C7D",
"9  c #9C7B5D",
"0  c #967868",
"q  c #FF4F7B",
"w  c #FF657B",
"e  c #FF6D79",
"r  c #FF7878",
"t  c #FFB52D",
"y  c #F4AE33",
"u  c #E3A43B",
"i  c #BC8E4D",
"p  c #8B9175",
"a  c #A89169",
"s  c #A6A97B",
"d  c #B5B67E",
"f  c #D49C44",
"g  c #CF9945",
"h  c #FF897F",
"j  c #FF9B76",
"k  c #D1AE6C",
"l  c #D6B16E",
"z  c #CBA979",
"x  c #E9BF6F",
"c  c #FFAE73",
"v  c #FFA274",
"b  c #EEBD7A",
"n  c #FFC771",
"m  c #FFCD71",
"M  c #FFC37B",
"N  c #FFD475",
"B  c #FFD979",
"V  c #263683",
"C  c #263985",
"Z  c #273688",
"A  c #29378D",
"S  c #2A398F",
"D  c #373F8E",
"F  c #2A3791",
"G  c #2B3894",
"H  c #2E3B9C",
"J  c #333B95",
"K  c #353C99",
"L  c #3B3E9A",
"P  c #2F3DA1",
"I  c #313EA4",
"U  c #4B3F9A",
"Y  c #384292",
"T  c #3342AE",
"R  c #3C44AE",
"E  c #3E43A5",
"W  c #494786",
"Q  c #504E82",
"!  c #44429C",
"~  c #4A459E",
"^  c #4F5893",
"/  c #704481",
"(  c #5C6492",
")  c #6E7492",
"_  c #767C90",
"`  c #656D92",
"'  c #4C4CA2",
"]  c #4247AF",
"[  c #4648AF",
"{  c #4B49AF",
"}  c #4B4AA1",
"|  c #5448A3",
" . c #5D4CA4",
".. c #534CAE",
"X. c #5C4EAD",
"o. c #5047A0",
"O. c #554DB0",
"+. c #5A4EB0",
"@. c #5F50B0",
"#. c #4B4AB0",
"$. c #614DA5",
"%. c #634FAA",
"&. c #6C52AA",
"*. c #6750A8",
"=. c #7455AC",
"-. c #7957AE",
";. c #7B58AE",
":. c #6451B0",
">. c #6C54B1",
",. c #7356B1",
"<. c #7C59B1",
"1. c #7858B2",
"2. c #7D4DAB",
"3. c #FF3F85",
"4. c #8A4A8C",
"5. c #B1529C",
"6. c #825AAF",
"7. c #865CB2",
"8. c #8B5CB2",
"9. c #935AB2",
"0. c #9D5AB2",
"q. c #874FAA",
"w. c #B053A5",
"e. c #A359B3",
"r. c #AC58B3",
"t. c #B258B3",
"y. c #BA57B3",
"u. c #A253AA",
"i. c #936BAD",
"p. c #8960B1",
"a. c #9E73A5",
"s. c #AF78AB",
"d. c #FF418A",
"f. c #FF4492",
"g. c #FF469A",
"h. c #FF489F",
"j. c #CC59A8",
"k. c #C557A5",
"l. c #C256B4",
"z. c #CC55B4",
"x. c #D354B4",
"c. c #DE53B4",
"v. c #FF4AA4",
"b. c #FF4DAD",
"n. c #FF4FB2",
"m. c #EB53B5",
"M. c #E652B5",
"N. c #F551B5",
"B. c #FF50B5",
"V. c #FF50B5",
"C. c #FF5CB2",
"Z. c #FF70AD",
"A. c #9F8A81",
"S. c #888B92",
"D. c #BE9094",
"F. c #A9AA8B",
"G. c #CB9D8D",
"H. c #FF9580",
"J. c #D6A687",
"K. c #FFAF82",
"L. c #ECBD9C",
"P. c #DAD686",
"I. c #FFC380",
"U. c #E3DE8A",
"Y. c #FFDF87",
"T. c #FFD385",
"R. c #FFD296",
"E. c #ECDA94",
"W. c #EBE58C",
"Q. c #FFE582",
"!. c #F4EC8D",
"~. c #FFEF8A",
"^. c #FFF68E",
"/. c #FFF58E",
"(. c #FEE791",
/* pixels */
"                                                      X X X X X X X X X X                                                       ",
"                                            X X X X X X X X X X X X X X X X X X X X                                             ",
"                                        X X X X X X X X X X . X X X X X . . X X X X X X                                         ",
"                                  . X X X X X X X X X X X X X X X X X X . . p 7 X X X X X X X                                   ",
"                                X X X X X . . . X X X X X X X X X X X X . 6 ^.!.5 X X X X X X X                                 ",
"                            X X X X X X X . . . O % V C V V @ O X X X X ; !.^.^.W.o X X X X X X X X                             ",
"                          X X X X X X X X O O Z G G G G G G G G % . X X X > !.U.; X X X X X X X X X X                           ",
"                      X X X X X X X X X + T H G G G G G G G G G G Z O X X X 5 > X X . X X X X X X X X X X                       ",
"                    X X X X X X X X X X G T T A G G G G G G G G G G G O . . . O + + + @ + O . . X X X X X X                     ",
"                  X X X X # 4.X X X X + G Y G G G G G G G G G G G G G A @ V A G G G G G G G F V + X X X X X X                   ",
"                X X X X X 5.j./ . X . Z G G G G G G G G G G H } ~ A G G G G G G G G G G G i 2 F G C + X X X X X                 ",
"              X X X X X X # 4.X . . + G G G G G G G G G J  .<.7.6.T P P P H G G G G G G i t y 4 G G G $ X X X . X               ",
"              X X X X X X X X X . . % G G G G G G F G | 7.7.7.>.[ T T T T T T T E H G G 9 t u Q G G G G @ O X . X               ",
"            X X X X X X X X X X . . Z G G G G G G I >.7.7.:.R T T T T T T T T T T T T H G 9 Q G G G G G G @ C . X X             ",
"        ^.s X X X X X X X X X X . . F G G G G P R <.7.<.[ T T T T T T T T T T T T T T T T G G G G G G G G T T % X X X           ",
"      ^.^.^.p X X X X + + X X O . . A G G G P R <.7.,.T T T T T T T T T T R [ @.:.>.1.,.&.:.' K G G G G S H E $ X X X           ",
"      ^.^.^.F.o X X + T T A G G G Z F G H T T >.p.>.T T T T T T T T T O.>.7.7.7.7.7.7.7.7.7.7.7.=.| J G G G G G V . . X         ",
"      ; P.s X X X + A E P S G G G G G P T T +.7.1.T T T T T T T T #.<.7.7.<.>.O.[ ] R ] ] ..:.1.7.7.7.| G G G G G V . .         ",
"      X - o X X $ G G G G G G G G G P T T [ 7.7.R T T T T T T T >.7.7.7.<.>.,.:.+...R T T T T T ] %.7.7.-.L G G G G $ . X       ",
"      X X X X @ G G G G G G G G G P T T T >.7.O.T T T T T T ] <.7.7.7.7.7.7.7.7.7.7.7.1.:.] T T T I K &.7.*.G G G G G O X       ",
"    X X X X O S G G G G G G G G H T T T ] 7.<.T T #.:.1.7.<.7.7.7.7.7.7.7.p.7.7.7.7.7.7.7.7.1.[ T T P G ! L G G G G G $ X X     ",
"    X X X X C S G G G G G G G G T T T T :.7.O.[ 1.7.7.7.7.7.7.7.7.7.7.8.r.l.z.l.0.7.7.7.7.7.7.7.:.T I G G G G G G G G V X X     ",
"  X X X X O S G G G G *.! G G T T T T T 7.7...7.7.7.i.p.7.7.7.7.7.0.x.V.B.B.B.B.B.l.7.7.7.7.7.7.7.1.R H G G G G G G G A X X X   ",
"  X X X X @ G G G G ~ 7. .G H T T T T ] 7.<.7.7.7.i.E.L.M.M.z.0.x.V.V.V.B.B.B.B.B.B.0.7.7.7.7.7.7.7.<.E G G G G G G G G X X X   ",
"  X X X . % G G G G  .7.~ G T T T T T O.7.7.7.7.7.s.(.R.C.V.V.V.V.V.n.v.h.v.n.n.V.V.y.7.7.7.7.7.7.7.7.<.K G G G G G J F., X X   ",
"  X X X . % G G G G &.7.L H T T T T T :.7.7.7.7.7.N.Z.C.V.V.V.V.b.f.8 8 8 8 d.V.V.V.z.7.7.7.7.7.7.7.<.7.,.J G G G G S.^.U.X X   ",
"X X X X . % G G G G =.7.J T T T T T T >.7.7.7.7.e.B.B.B.V.V.V.g.3.8 w j c e 8 v.V.V.l.7.7.a.J.7.7.7.>.,.7. .G G G G G F., X X   ",
"X X X X . @ G G G G -.7.K T T T T T T ,.7.7.7.7.t.B.B.B.V.b.d.8 q v m m N M 8 v.V.V.r.7.p.b m D.7.7.<.R 7.7.Y G G G G O X X X X ",
"X X X X X O G G G G -.7.E T T T T T T >.7.7.8.z.m.B.V.V.b.3.8 w n m m Q./.T.8 v.V.V.t.7.7.i.G.7.7.7.<.T | 7.&.G G G C X X X X X ",
"X X X X - X V G G G =.7.T T T T T T T >.7.0.N.B.B.B.V.n.3.8 r m m N ~././.h 8 b.V.V.V.9.7.7.7.7.7.7.>.T I -.7.L G G + X X X X X ",
"X X X o k a V G G G *.7.[ T T T T R ,.7.7.M.B.B.B.B.V.d.8 r m m B /././.Y.8 f.n.V.V.V.l.7.7.7.7.7.7.O.T P | 6. .G G C X X X X X ",
"X X X k m m A.G G G | 7...T T T [ 7.7.7.r.B.B.B.B.B.g.8 w m m B /./././.w 8 n.B.V.V.V.x.7.7.7.7.7.,.T T K J 7.;.G G G O X X X X ",
"X . X - n z Y G G G ! 7.>.T T R 7.7.7.7.y.V.V.V.V.b.3.q n m N /./././.H.8 h.n.n.B.B.B.l.7.7.7.7.1.] T T H G =.7.L G G $ . X X X ",
". . X . 1 Y G G G G G 6.7.R T +.7.7.7.7.r.V.V.V.V.d.8 v m m ~./././.K.8 3.n.B.B.B.B.B.0.7.7.1.O.T T T T G G  .7.~ G G % . . X X ",
". X . O @ G G G G G G %.7.O.T ,.7.7.7.7.7.V.V.V.V.8 w m m Q./././.K.8 3.n.B.B.B.B.B.l.8.7.,.T T T T T T G G ' 7.| G G V X X X X ",
". X . . V G G G G G G ] 7.<.R 1.7.7.7.7.7.r.V.V.v.8 j m N /././.H.3.3.b.B.B.B.B.M.r.7.7.7.,.T T T T T I G G ~ 7. .G G V X X X X ",
". X X X % G G G G G G H >.7.@.1.7.7.7.7.7.r.V.V.h.8 c m Q./.Y.w 8 d.n.B.B.B.N.7.7.7.7.7.7.,.T T T T ' 4 Y H ! 7.$.G G % . X X X ",
"  . X X @ G G G G G G H R <.7.1.7.7.7.7.6.l.V.V.v.8 e c M h 8 8 g.V.V.B.B.B.B.7.7.7.7.7.7.:.T T T [ f y 2 G ! 7.$.G G + X X X   ",
"  X X X O G G G G G G G T ..7.7.7.7.7.7.7.z.V.V.V.d.8 8 3.3.f.n.V.V.B.B.B.B.c.7.7.7.7.7.7.+.T T T 0 y t g G H &.! G G X X X X   ",
"  X X X . % G G G G G G T T :.7.7.7.7.7.7.l.V.V.V.V.v.h.v.n.B.B.V.V.B.B.B.B.e.7.7.7.7.7.7.#.T T T T 0 g Y A S G G G % X X X X   ",
"  X X X X X C ~ U F G G P T T :.7.7.7.7.7.0.V.V.B.B.B.B.B.B.B.x.m.n.B.B.N.r.7.8.7.7.7.7.7.T T T T K G D G G G G G A X X X X X   ",
"  X X X X X X 6.7.~ G G H T T T >.7.7.7.7.7.l.V.B.B.B.B.B.z.9.7.7.e.y.r.8.7.7.7.7.7.7.7.:.T T T I G G G G G G G G O X X X X X   ",
"    X X X X X < 7.7.~ G G T T T T O.7.7.7.7.7.0.l.z.l.r.8.7.7.7.7.7.7.7.7.7.7.7.7.+.1.7.] T I I H G G G G G G A O X X X X X     ",
"    X X X X X X W 7.7.$.G H T T T T R >.7.7.7.7.7.7.7.7.7.7.7.7.7.7.7.7.7.7.7.>.R O.7.,.T T I P G G G G G S $ X X X X X X X     ",
"      X X X X X @ ! 6.6.;.~ T T T T T T [ >.7.7.7.7.7.7.7.7.7.<.] T R #.#.R T T R 7.7.] T T P G G G G G @ X X X X X X X X       ",
"      X X X X X O G K *.7.7.-.@.] T T T T T ] @.>.<.7.7.7.7.>.T T T T T T T T T ,.7.:.T I I G G G G G G + X X X & X X X X       ",
"      . X X X X X A G G ! &.7.7.7.7.,.:.:.:.:.,.7.7.7.7.>.] T T T T T T T T T >.7.1.T T I G G G G G G G $ . X / k.# X X         ",
"        X X X X X % G G G G L | ,.7.7.7.7.7.7.7.7.,.@.R T T T T T T T T T R >.7.1.R I P H G G G G G G G @ X X 4.j.= X X         ",
"          X X X X + G G G G G G G H ] [ ..{ [ ] T T T T T T T T T T T T [ 1.7.1.E T H G G G G G G G G G + X X X * X X           ",
"          X X X X X V G G G G G G G G T T T T T T T T T T T T T T T R :.7.7.>.T H G G G G G G G G G F F X X X X X X X           ",
"            X X X X O H H F G G G G G G H T T T T R 2.T T T T T [ >.7.7.7...H G G G G G G G G G G G G V X X X X X X             ",
"              X X X + T T H G G G G G G G G H P T u.j.q.T T T R 7.7.<.X.K F G G G G G G H G G G G G F O X X X X X               ",
"              X X X X C A G G G G G G G G G G G F U w.L P P P H | } G G G G G G G G G T T H G G G G @ . . . X X X               ",
"                X X X X X + Z G G G G G G G G G G G G G G G G G G G G G G G G G G G G G T G G G F V X X . . X X                 ",
"                  X X X X X X + C A G G G G G G G G G G G G G G G G G G G G G G G G G G G G G G % . . X . X X                   ",
"                    X X X X X X X X O + + + Z G G G G G G G Y G G G G G G G A S G G G G G G C + . . X X . X                     ",
"                      X X X X X X X X X X X O A G G G G G ( U.^ G G G G G V O . + $ % $ + O X X X X X X X                       ",
"                          X X X X X X X X X X O F G G G ` !./.W.^ G G F Z O X X X X X X X X X X X X X                           ",
"                            X X X X X X X X X X O % G G S././.!.) G F % X X X X X X X X X X X X X X                             ",
"                                X X X X X X X X . . O % A ) /.( A $ O . X X X X X X X X X X X X                                 ",
"                                    X X X X X X . . . X X X > X X X X X X X X . X X X X X X                                     ",
"                                        X X X X . . X X X X X X X X X X X X X X X X X X                                         ",
"                                            X X X X X X X . X X X X X X X X X X X X                                             ",
"                                                      X X X X X X X X X X                                                       "
};
