/* XPM */
static char *_9817921f782492dd056af206c866e84xlJiwUOxPnBuYcPC[] = {
/* columns rows colors chars-per-pixel */
"64 64 200 2 ",
"   c None",
".  c #3D324C",
"X  c #3D324D",
"o  c #3E324D",
"O  c #3E334D",
"+  c #3E334E",
"@  c #3F334E",
"#  c #3E334F",
"$  c #3F344E",
"%  c #3F344F",
"&  c #40344F",
"*  c #413550",
"=  c #403551",
"-  c #413551",
";  c #423551",
":  c #413651",
">  c #423651",
",  c #423552",
"<  c #413652",
"1  c #423652",
"2  c #433652",
"3  c #423653",
"4  c #433653",
"5  c #423753",
"6  c #433753",
"7  c #433754",
"8  c #443754",
"9  c #443855",
"0  c #453855",
"q  c #453856",
"w  c #453956",
"e  c #463956",
"r  c #463957",
"t  c #473958",
"y  c #473B59",
"u  c #483A59",
"i  c #483B59",
"p  c #493B5B",
"a  c #493C59",
"s  c #493D5B",
"d  c #4A3D5C",
"f  c #4B3D5C",
"g  c #4B3D5D",
"h  c #4B3E5D",
"j  c #4C3D5D",
"k  c #4C3E5D",
"l  c #4C3E5E",
"z  c #4D3E5E",
"x  c #4D3E5F",
"c  c #4C3F5F",
"v  c #4D3F5F",
"b  c #4D3F60",
"n  c #4E3F60",
"m  c #4E3F61",
"M  c #4E4061",
"N  c #4E4062",
"B  c #4F4062",
"V  c #504163",
"C  c #504263",
"Z  c #504363",
"A  c #514264",
"S  c #524266",
"D  c #544366",
"F  c #534467",
"G  c #544467",
"H  c #544468",
"J  c #554568",
"K  c #57466B",
"L  c #57466C",
"P  c #57476C",
"I  c #58476C",
"U  c #58486D",
"Y  c #59486E",
"T  c #5A496F",
"R  c #5D4B72",
"E  c #5E4C74",
"W  c #5E4D74",
"Q  c #5F4D74",
"!  c #5F4D75",
"~  c #604E76",
"^  c #614F77",
"/  c #614F78",
"(  c #624F78",
")  c #7F4771",
"_  c #7F4974",
"`  c #7F4A75",
"'  c #7F4C77",
"]  c #7F4D7A",
"[  c #625079",
"{  c #63517A",
"}  c #64507A",
"|  c #64517B",
" . c #65527D",
".. c #66537D",
"X. c #67547F",
"o. c #804169",
"O. c #80426A",
"+. c #80426B",
"@. c #80436B",
"#. c #80446D",
"$. c #80456F",
"%. c #80466F",
"&. c #685480",
"*. c #695581",
"=. c #6A5682",
"-. c #6A5683",
";. c #6B5783",
":. c #6C5784",
">. c #6D5885",
",. c #6E5987",
"<. c #6F5A89",
"1. c #7E5482",
"2. c #7E5786",
"3. c #705A88",
"4. c #705B89",
"5. c #715B8A",
"6. c #715C8B",
"7. c #725C8B",
"8. c #735D8D",
"9. c #735D8E",
"0. c #7E5888",
"q. c #7E5989",
"w. c #7E5A8A",
"e. c #7E5C8D",
"r. c #7E5D8E",
"t. c #766091",
"y. c #776091",
"u. c #7D6092",
"i. c #7D6093",
"p. c #7A6396",
"a. c #7D6295",
"s. c #7D6396",
"d. c #7D6397",
"f. c #7B6497",
"g. c #7C6497",
"h. c #7D6497",
"j. c #7E6299",
"k. c #7E6399",
"l. c #7F619A",
"z. c #7F629A",
"x. c #7C6498",
"c. c #7D6498",
"v. c #7C6598",
"b. c #7D6598",
"n. c #7D6499",
"m. c #7C6599",
"M. c #7D6599",
"N. c #7E6598",
"B. c #7E6499",
"V. c #7E6599",
"C. c #7D6699",
"Z. c #7E6699",
"A. c #7D659A",
"S. c #7F689A",
"D. c #7F689B",
"F. c #874E9C",
"G. c #874F9C",
"H. c #894B9D",
"J. c #884C9D",
"K. c #894C9D",
"L. c #884D9D",
"P. c #884E9D",
"I. c #83579B",
"U. c #84569B",
"Y. c #87509C",
"T. c #85539C",
"R. c #85549C",
"E. c #85559C",
"W. c #83589B",
"Q. c #82599B",
"!. c #83599B",
"~. c #815B9A",
"^. c #825A9B",
"/. c #825B9B",
"(. c #815C9A",
"). c #815D9A",
"_. c #805E9A",
"`. c #805F9A",
"'. c #816B9C",
"]. c #846F9E",
"[. c #85709E",
"{. c #86729F",
"}. c #8774A0",
"|. c #8976A1",
" X c #8A77A2",
".X c #8D7DA5",
"XX c #9689AB",
"oX c #988CAC",
"OX c #9C93AF",
"+X c #9F96B1",
"@X c #A19AB3",
"#X c #A7A3B7",
"$X c #ABA9BA",
"%X c #ACAABB",
"&X c #AEADBC",
"*X c #B3B5C0",
"=X c #B9BEC4",
"-X c #BABFC5",
";X c #BCC2C6",
":X c #BDC3C7",
/* pixels */
"                                                    M.M.M.M.M.M.M.                                                              ",
"                                              M.M.M.M.M.M.M.M.M.M.M.M.M.M.                                                      ",
"                                          M.M.M.M.M.M.M.M.M.M.M.M.M.M.M.M.M.M.M.                                                ",
"                                      M.M.M.M.M.M.M.M.M.M.M.M.M.M.M.M.M.M.M.M.M.M.M.M.M.                                        ",
"                                  M.M.M.M.M.M.M.M.M.M.M.M.M.M.M.M.M.M.M.M.M.M.M.M.M.M.M.M.M.M.                                  ",
"                                M.M.M.M.M.M.M.M.M.M.M.M.M.M.M.M.M.M.M.M.M.M.M.M.M.M.M.M.M.M.M.M.M.                              ",
"                              M.M.M.M.M.M.M.M.M.M.M.M.M.M.M.M.M.M.M.M.M.M.M.M.M.M.M.M.M.M.M.M.M.M.M.M.                          ",
"                          M.M.M.M.M.M.M.M.M.M.M.M.M.M.M.M.M.M.M.M.M.M.M.M.M.M.M.M.M.M.M.M.M.M.M.M.M.M.M.                        ",
"                        M.M.M.M.M.M.M.M.M.M.M.M.M.M.M.M.M.M.M.M.M.M.M.M.M.M.M.M.M.M.M.M.M.M.M.M.M.M.M.M.M.M.                    ",
"                    M.M.M.M.M.M.M.M.M.M.M.M.M.M.M.M.M.M.M.M.M.M.M.M.M.M.M.M.M.M.M.M.M.M.M.M.M.M.M.M.M.M.M.M.M.                  ",
"                  M.M.M.M.M.M.M.M.M.M.M.M.M.M.M.M.M.M.M.M.M.M.M.M.Q.K.H.Y.l.M.M.M.M.M.M.M.M.M.M.M.M.M.M.M.M.M.                  ",
"              } M.M.M.M.M.M.M.M.M.M.M.M.M.M.M.M.M.M.M.M.M.M.M.M.Q.H.H.H.H.K.j.M.M.M.M.M.M.M.M.M.M.M.M.M.M.M.M.M.                ",
"            U &.M.M.M.M.M.M.M.M.M.M.M.M.M.M.M.M.M.M.M.M.M.M.M.M.Y.H.H.H.H.H.I.M.M.M.M.M.M.M.M.M.M.M.M.M.M.M.M.M.M.              ",
"          L l M.M.M.M.M.M.M.M.M.M.M.M.M.M.M.M.M.M.M.M.M.M.M.M.M.K.H.H.H.H.H.I.M.M.M.M.M.M.M.M.M.M.M.M.M.M.M.M.M.M.              ",
"          + 4.M.M.M.M.M.M.M.M.M.M.M.M.M.M.M.M.M.M.M.M.M.M.M.M.M.E.H.H.H.H.H.).M.M.M.M.M.M.M.M.M.M.M.M.M.M.M.M.M.M.M.            ",
"        e A M.M.M.M.M.M.M.M.M.M.M.M.M.M.M.M.M.M.M.M.M.M.M.M.M.M.j.G.H.H.H.E.M.M.M.M.M.M.M.M.M.M.M.M.M.M.M.M.M.M.M.M.            ",
"      A + ( M.M.M.M.M.M.M.M.M.M.M.M.M.M.M.M.M.M.M.M.M.M.M.M.M.M.M.M.).!.).M.M.M.M.M.M.M.M.M.M.M.M.M.M.M.M.M.M.M.M.M.M.          ",
"      + + 4.M.M.M.M.M.M.M.M.M.M.M.M.M.M.M.M.M.M.M.M.M.M.M.M.M.M.M.M.M.M.M.M.M.M.M.M.M.M.M.M.M.M.M.M.M.M.M.M.M.M.M.M.M.          ",
"    G . 1 M.M.M.M.M.M.M.M.M.M.M.M.M.M.M.M.M.M.M.M.M.M.M.M.M.M.M.M.M.M.M.M.M.M.M.M.M.M.M.M.M.M.M.M.M.M.M.M.M.M.M.M.M.M.M.        ",
"    e . A M.M.M.M.M.M.M.M.M.M.M.M.M.M.M.M.M.M.M.M.M.M.M.M.M.M.M.M.M.M.M.M.M.M.M.M.M.M.M.M.M.M.M.M.M.M.M.M.M.M.M.M.M.M.M.        ",
"    . . Q M.M.M.M.M.M.M.M.M.M.M.M.M.M.M.M.M.M.M.M.M.M.M.M.M.M.M.M.M.M.M.M.M.M.M.M.M.M.M.M.M.M.M.M.M.M.M.M.M.M.M.M.M.M.M.        ",
"  D . .  .M.M.M.M.M.M.M.M.M.M.M.M.M.M.M.M.M.M.M.M.M.M.M.M.M.M.M.M.M.M.M.M.M.M.M.M.M.M.M.M.M.M.M.M.M.M.M.M.M.M.M.M.M.M.M.M.      ",
"  n . . &.M.M.M.M.M.M.M.M.M.M.M.M.M.M.M.M.M.M.M.M.M.M.M.M.M.M.M.M.OX&X].M.M.M.M.M.M.M.M.M.M.M.M.M.M.M.M.M.M.M.M.M.M.M.M.M.      ",
"  t . + 8.M.M.M.M.M.M.M.M.M.M.M.M.M.M.M.M.M.M.M.M.M.M.M.M.M.M.M.M.$X-X[.M.M.M.M.M.M.M.M.M.M.M.M.M.M.M.M.M.M.M.M.M.M.M.M.M.M.    ",
"  1 . . t.M.M.M.M.M.M.M.M.M.M.M.M.M.M.M.M.M.M.M.M.M.M.M.M.M.M.M.M.'.[.M.M.M.M.M.M.M.M.M.M.M.M.M.M.M.M.M.M.M.M.M.M.M.M.M.M.M.    ",
"  + . . M.M.M.M.M.M.M.M.M.M.M.M.M.M.M.M.M.M.M.M.M.M.M.M.M.M.M.M.M.j.M.M.M.M.M.M.M.M.M.M.M.M.M.M.M.M.M.M.M.M.M.M.M.M.M.M.M.M.    ",
"  . . 1 M.M.M.M.M.M.M.M.M.M.M.M.M.M.M.M.M.M.M.M.M.M.M.M.M.M.M.M.M.M.M.M.M.M.M.M.M.M.M.M.M.M.M.M.M.M.M.M.M.M.M.M.M.M.M.M.M.M.M.  ",
"  . + e M.M.M.M.M.M.M.M.M.M.M.M.M.M.M.M.M.M.M.M.M.M.M.M.M.M.M.M.M.M.M.M.M.M.M.M.M.M.M.M.M.M.M.M.M.M.M.M.M.M.M.M.M.M.M.M.M.M.M.  ",
"  + . l M.M.M.M.M.M.M.M.M.M.M.M.M.M.M.M.M.M.M.M.M.M.M.M.M.M.M.M.M.M.M.M.M.M.M.M.M.M.M.M.M.M.M.M.M.M.M.M.M.M.M.M.M.M.M.M.M.M.M.  ",
"B . . G M.M.M.M.M.M.M.M.M.M.M.M.M.M.M.M.M.M.M.M.M.M.M.M.M.M.M.M.M.M.M.M.M.M.M.M.M.M.M.M.M.M.M.M.M.M.M.M.M.M.M.M.M.M.M.M.M.M.M.  ",
"Z . . U M.M.M.M.M.M.M.M.M.M.M.M.M.M.M.M.M.M.M.M.M.M.M.M.M.M.d.M.M.M.M.M.M.M.M.M.M.M.M.M.M.M.M.M.M.M.M.M.M.M.M.M.M.M.M.M.M.M.M.M.",
"n + . W M.M.M.M.M.M.M.M.M.M.M.M.M.M.M.M.M.M.M.M.M.M.M.M.i.` o.o.] h.M.M.M.M.M.M.M.M.M.M.M.M.M.M.M.M.M.M.M.M.M.M.M.M.M.M.M.M.M.M.",
"g . + | M.M.M.M.M.M.M.M.M.M.M.M.M.M.M.M.M.M.M.M.M.M.M.d.) o.o.o.o.' h.M.M.M.M.M.M.M.M.M.M.M.M.M.M.M.M.M.M.M.M.M.M.M.M.M.M.M.M.M.",
"g . . | M.M.M.M.M.M.M.M.M.M.M.M.M.M.M.M.M.M.M.M.M.M.M.e.o.o.o.o.o.o.d.M.M.M.M.M.M.M.M.M.M.M.M.M.M.M.M.M.M.M.M.M.M.M.M.M.M.M.M.M.",
"e . . ! M.M.M.M.M.M.M.M.M.M.M.M.M.M.M.M.M.M.M.M.M.M.M.q.o.o.o.o.o.o.i.M.M.M.M.M.M.M.M.M.M.M.M.M.M.M.M.M.M.M.M.M.M.M.M.M.M.M.M.M.",
"1 . + Q M.M.M.M.M.M.M.M.M.M.x.j.M.M.M.M.M.M.M.M.M.M.d.i.o.o.o.o.o.$.M.M.M.M.M.M.M.M.M.M.M.M.M.M.M.M.M.M.M.M.M.M.M.M.M.M.M.M.M.M.",
"1 . . R M.M.M.M.M.M.M.M.M.M.M.d.M.M.M.M.M.M.M.M.M.M.M.M.0.) ) ) $.r.M.M.M.M.M.M.M.M.M.M.M.M.M.M.M.M.M.M.M.M.M.M.M.M.M.M.M.M.M.M.",
"1 + + n M.M.M.M.M.M.M.j.Q.Q.'.j.M.M.M.M.M.M.M.M.M.M.M.M.M.i.] 2.i.M.M.M.M.M.M.M.M.M.M.M.M.M.M.M.M.M.M.M.M.M.M.M.M.M.M.M.M.M.M.  ",
"7 . + + m.M.M.M.M.M.j.G.H.H.H.I.M.M.M.M.M.M.M.M.M.M.M.M.M.M.M.M.M.M.M.M.M.M.M.M.M.M.M.M.M.M.M.M.M.M.M.M.[.}.M.M.M.M.M.M.M.M.M.  ",
"e . . + <.M.M.M.M.M.Y.H.H.H.H.H.).M.M.M.M.M.M.M.M.M.M.M.M.M.M.M.M.M.M.M.M.M.M.M.M.M.M.M.M.M.M.M.M.M.M.'.:X-XM.M.M.M.M.M.M.M.M.  ",
"a + . . E M.M.M.M.M.H.H.H.H.H.H.Q.M.M.M.M.M.M.M.M.M.M.M.M.M.M.M.M.M.M.M.M.M.M.M.M.M.M.M.M.M.M.M.M.M.M.M.@X+XM.M.M.M.M.M.M.M.    ",
"B . . . 1 p.M.M.M.M.G.H.H.H.H.H.Q.M.M.M.M.M.M.M.M.M.M.M.M.M.M.M.M.M.M.M.M.M.M.M.M.M.M.M.M.M.M.M.M.M.M.M.M.M.M.M.M.M.M.M.M.M.    ",
"  + . . . ^ M.M.M.M.!.H.H.H.H.K.j.M.M.M.M.M.M.M.M.M.M.M.M.M.M.M.M.M.M.M.M.M.M.M.M.M.l.F.K.Q.M.M.M.M.M.M.M.M.M.M.M.M.M.M.M.      ",
"  1 . . . 1 p.M.M.M.M.Q.K.H.Y.l.M.M.M.M.M.M.M.M.M.M.M.M.M.M.M.M.M.M.M.M.M.M.M.M.M.M.F.H.H.H.j.M.M.M.M.M.M.M.M.M.M.M.M.M.M.      ",
"  g . . . . I M.M.M.M.M.M.M.M.M.M.M.M.M.M.M.M.XX%X}.M.M.M.M.M.M.M.M.M.M.M.M.M.M.M.M.K.K.K.K.j.M.M.M.M.M.M.M.M.M.M.M.M.M.        ",
"    1 . . . + } M.M.M.M.M.M.M.M.M.M.M.M.M.M.M.#X:X XM.M.M.M.M.M.oX@XS.M.M.M.M.M.M.M.Q.K.H.E.M.M.M.M.M.M.M.M.M.M.M.M.M.M.        ",
"    v + . . . + :.M.M.M.M.M.M.M.M.M.M.M.M.M.M.M.|.M.M.M.M.M.M.M.&X;X'.M.M.M.M.M.M.M.M.j.j.M.M.M.M.M.M.M.M.M.M.M.M.M.M.          ",
"      1 . . . . 1 8.M.M.M.M.M.M.M.M.M.M.M.M.M.M.M.M.M.M.M.M.M.M.|.XXf.M.M.M.M.M.M.M.M.M.M.M.M.M.M.M.M.M.M.M.M.M.M.M.            ",
"        O + + . . 1 ,.M.M.M.M.M.M.M.M.M.M.M.M.M.M.M.M.M.M.M.M.M.M.M.M.M.M.M.M.M.M.M.M.M.M.M.M.M.M.M.M.M.M.M.M.M.M.M.            ",
"          + . . . . & &.M.M.M.M.M.M.M.M.M.M.M.M.M.M.M.M.M.M.M.M.M.M.M.M.M.M.M.M.M.M.M.M.M.M.M.M.M.M.M.M.M.M.M.M.M.              ",
"          g . . . . . + &.M.M.M.M.M.M.M.M.M.M.M.M.M.M.M.M.M.M.M.M.M.M.M.M.M.M.M.M.M.M.M.M.M.M.M.M.M.M.M.M.M.M.M.M.              ",
"            a + . . . . &  .M.M.M.M.M.M.M.M.M.M.M.M.M.M.M.M.M.M.M.M.M.M.M.M.M.M.M.M.M.M.M.M.M.M.M.M.M.M.M.M.M.M.                ",
"                . . . . + . ^ M.M.M.M.M.M.M.M.M.M.q.%.o.%.q.M.M.M.M.M.M.M.M.M.M.M.M.M.M.M.M.M.M.M.M.M.M.M.M.M.                  ",
"                  + . . . . . W M.M.M.M.M.M.M.M.r.o.o.o.o.o.r.M.M.M.M.M.M.M.M.M.M.M.M.M.M.M.M.M.M.M.M.M.M.M.M.                  ",
"                    + + . . . . U M.M.M.M.M.M.M.%.$.o.o.o.o.] M.M.M.M.M.M.M.M.M.M.M.M.M.M.M.M.M.M.M.M.M.M.M.                    ",
"                      & . . . . . K f.M.M.M.M.M.%.%.o.o.o.o.` M.M.M.M.M.M.M.M.M.M.M.M.M.M.M.M.M.M.M.M.M.4.                      ",
"                        1 + . . . . l t.M.M.M.M.1.o.o.o.o.) 1.M.M.M.M.M.M.M.M.M.M.M.M.M.M.M.M.M.M.M.y.H D                       ",
"                          1 . . . . . 1 &.M.M.M.h._ o.o.o._ h.M.M.M.M.M.M.M.M.M.M.M.M.M.M.M.M.f.<.U 1 D                         ",
"                            1 . . . . . + G 7.M.M.h.q.1.2.d.M.M.M.M.M.M.M.M.M.M.M.M.M.p.8. .G 1 . 8                             ",
"                              e . . . . + . . B &.M.M.M.h.h.M.M.M.M.M.M.h.9.&.^ I B 8 + . . . O l                               ",
"                                i + . . . . . . + O a U { X.} ^ Q L n e O . . . . . . + + & l                                   ",
"                                    7 . . . . . + . . + . . + . + . + . + . . . . + 1 g n                                       ",
"                                        t . + . . . . . + . . . . . + + e a l l                                                 ",
"                                              j i 1 1 1 1 e i g g                                                               "
};
